# xmcd
#
# Track frame offsets:
#	150
#	13102
#	30712
#	46800
#
# Disc length: 808 seconds
#
# Revision: 1
# Processed by: cddbd v1.5.1PL0 Copyright (c) Steve Scherf et al.
# Submitted via: EasyCDDAExtractor 7.0.6.1
#
DISCID=27032604
DTITLE=Brielle - Brielle  The Girls in Love
DYEAR=1900
DGENRE=Country
TTITLE0=The Girls In Love
TTITLE1=Cry
TTITLE2=Galleries Of Pink Galahs
TTITLE3=The Girls In Love Alternate Version
EXTD=
EXTT0=
EXTT1=
EXTT2=
EXTT3=
PLAYORDER=
